<?xml version="1.0" encoding="utf-8"?>
<!-- Generator: Adobe Illustrator 24.2.0, SVG Export Plug-In . SVG Version: 6.00 Build 0)  -->
<svg version="1.1" xmlns="http://www.w3.org/2000/svg" xmlns:xlink="http://www.w3.org/1999/xlink" x="0px" y="0px"
	 viewBox="0 0 148.5 50" style="enable-background:new 0 0 148.5 50;" xml:space="preserve">
<style type="text/css">
	.st0{fill:#FFFFFF;}
</style>
<g id="Layer_1">
</g>
<g id="Logo">
	<g>
		<path class="st0" d="M18.8,12.8c-10.3,0-18.7,8.4-18.7,18.7s8.4,18.7,18.7,18.7s18.7-8.4,18.7-18.7S29.1,12.8,18.8,12.8z
			 M18.8,40.8c-5.2,0-9.3-4.2-9.3-9.3s4.2-9.3,9.3-9.3s9.3,4.2,9.3,9.3S23.9,40.8,18.8,40.8z"/>
		<path class="st0" d="M51.6,37.8c0-1.5,1.8-2.2,2.8-1.2c4.7,4.8,12.4,12.9,12.4,13c0.1,0.1,0.2,0.3,0.7,0.4
			c0.2,0.1,0.5,0.1,0.8,0.1l8.4,0c1.5,0,2-1.8,1.3-2.6L64,33.1l-0.7-0.8c-1.6-1.9-1.4-2.6,0.4-4.6l11.1-12.3
			c0.7-0.9,0.3-2.6-1.3-2.6h-7.6c-0.3,0-0.5,0-0.7,0.1c-0.5,0.1-0.6,0.3-0.7,0.4c0,0-6.2,6.6-9.9,10.7c-1,1.1-2.9,0.4-2.9-1.1
			l0-21.2c0-1.1-0.9-1.5-1.6-1.5h-6.2c-1.1,0-1.6,0.7-1.6,1.4v47c0,1.1,0.9,1.4,1.6,1.4H50c1,0,1.6-0.7,1.6-1.4v-0.5V37.8z"/>
		<path class="st0" d="M102.5,48.4l-0.7-6.3c-0.1-0.9-0.9-1.4-1.7-1.3c-0.5,0.1-1,0.1-1.4,0.1c-5,0-9-3.9-9.3-8.8c0-0.2,0-0.3,0-0.5
			V24c0-1,0.7-1.8,1.7-1.8l8.4,0c0.6,0,1.5-0.5,1.5-1.6v-5.9c0-1.1-0.7-1.8-1.4-1.8h-8.4c-1,0-1.8-0.7-1.8-1.7l0-9.4
			c0-0.6-0.4-1.5-1.6-1.5h-6.2c-0.8,0-1.5,0.5-1.5,1.4c0,0,0,30.2,0,30.4c0.3,10.1,8.5,18.2,18.7,18.2c0.8,0,1.7-0.1,2.5-0.2
			C102,50,102.6,49.2,102.5,48.4z"/>
		<path class="st0" d="M147.5,40.6c-5.3,0-6.1-1.9-6.1-9c0,0,0,0,0-0.1l0-17c0-0.6-0.4-1.6-1.6-1.6h-6.2c-0.8,0-1.6,0.6-1.6,1.6
			l0,0.8c-2.7-1.5-5.9-2.4-9.2-2.4c-10.3,0-18.7,8.4-18.7,18.7c0,10.3,8.4,18.7,18.7,18.7c4.6,0,8.9-1.7,12.1-4.5
			c1.8,2.7,4.6,4.4,9,4.5c0.8,0,4.7,0.1,4.7-1.7v-6.6C148.6,41.2,148.1,40.6,147.5,40.6z M122.7,40.8c-5.2,0-9.3-4.2-9.3-9.3
			c0-5.2,4.2-9.3,9.3-9.3c5.2,0,9.3,4.2,9.3,9.3C132.1,36.6,127.9,40.8,122.7,40.8z"/>
	</g>
</g>
</svg>
